M48
; DRILL file {KiCad 9.0.4} date 2026-03-29T16:06:11-0700
; FORMAT={-:-/ absolute / metric / decimal}
; #@! TF.CreationDate,2026-03-29T16:06:11-07:00
; #@! TF.GenerationSoftware,Kicad,Pcbnew,9.0.4
; #@! TF.FileFunction,Plated,1,2,PTH
FMAT,2
METRIC
; #@! TA.AperFunction,Plated,PTH,ViaDrill
T1C0.300
; #@! TA.AperFunction,Plated,PTH,ComponentDrill
T2C0.800
; #@! TA.AperFunction,Plated,PTH,ComponentDrill
T3C1.000
; #@! TA.AperFunction,Plated,PTH,ComponentDrill
T4C2.500
%
G90
G05
T1
X40.208Y-155.753
X45.009Y-153.314
X47.295Y-156.489
X49.238Y-158.686
X56.896Y-158.852
X58.674Y-158.013
X59.969Y-48.661
X60.63Y-157.201
X62.205Y-57.791
X62.205Y-66.921
X62.205Y-76.051
X62.205Y-85.181
X62.205Y-94.311
X62.205Y-103.441
X62.205Y-112.571
X62.205Y-121.701
X62.205Y-130.831
X62.205Y-139.961
X62.205Y-149.091
X62.433Y-53.492
X63.627Y-51.638
X65.024Y-49.555
X67.488Y-47.396
X84.201Y-74.295
X93.091Y-74.295
X106.681Y-38.566
X115.681Y-38.566
X124.681Y-38.566
X133.681Y-38.566
X136.728Y-39.624
X145.39Y-40.386
X156.921Y-41.199
X165.837Y-41.91
X175.743Y-45.415
X185.141Y-44.526
X192.38Y-43.713
X202.108Y-42.85
X214.681Y-154.102
X250.012Y-37.897
X255.194Y-45.136
T2
X72.76Y-50.002
X72.76Y-52.542
X72.763Y-59.133
X72.763Y-61.673
X72.763Y-68.264
X72.763Y-70.804
X72.763Y-77.395
X72.763Y-79.935
X72.763Y-86.526
X72.763Y-89.066
X72.763Y-95.656
X72.763Y-98.196
X72.763Y-104.787
X72.763Y-107.327
X72.763Y-113.922
X72.763Y-116.462
X72.763Y-123.052
X72.763Y-125.592
X72.763Y-132.18
X72.763Y-134.72
X72.763Y-141.31
X72.763Y-143.85
X72.763Y-150.441
X72.763Y-152.981
X81.76Y-50.002
X81.76Y-52.542
X81.764Y-59.133
X81.764Y-61.673
X81.764Y-68.264
X81.764Y-70.804
X81.764Y-77.395
X81.764Y-79.935
X81.764Y-86.526
X81.764Y-89.066
X81.764Y-95.656
X81.764Y-98.196
X81.764Y-104.787
X81.764Y-107.327
X81.764Y-113.922
X81.764Y-116.462
X81.764Y-123.052
X81.764Y-125.592
X81.764Y-132.18
X81.764Y-134.72
X81.764Y-141.31
X81.764Y-143.85
X81.764Y-150.441
X81.764Y-152.981
X90.76Y-50.002
X90.76Y-52.542
X90.764Y-59.133
X90.764Y-61.673
X90.764Y-68.264
X90.764Y-70.804
X90.764Y-77.395
X90.764Y-79.935
X90.764Y-86.526
X90.764Y-89.066
X90.764Y-95.656
X90.764Y-98.196
X90.764Y-104.787
X90.764Y-107.327
X90.764Y-113.922
X90.764Y-116.462
X90.764Y-123.052
X90.764Y-125.592
X90.764Y-132.18
X90.764Y-134.72
X90.764Y-141.31
X90.764Y-143.85
X90.764Y-150.441
X90.764Y-152.981
X99.76Y-50.002
X99.76Y-52.542
X99.764Y-59.133
X99.764Y-61.673
X99.764Y-68.264
X99.764Y-70.804
X99.764Y-77.395
X99.764Y-79.935
X99.764Y-86.526
X99.764Y-89.066
X99.764Y-95.656
X99.764Y-98.196
X99.764Y-104.787
X99.764Y-107.327
X99.764Y-113.922
X99.764Y-116.462
X99.764Y-123.052
X99.764Y-125.592
X99.764Y-132.18
X99.764Y-134.72
X99.764Y-141.31
X99.764Y-143.85
X99.764Y-150.441
X99.764Y-152.981
X108.76Y-50.002
X108.76Y-52.542
X108.764Y-59.133
X108.764Y-61.673
X108.764Y-68.264
X108.764Y-70.804
X108.764Y-77.395
X108.764Y-79.935
X108.764Y-86.526
X108.764Y-89.066
X108.764Y-95.656
X108.764Y-98.196
X108.764Y-104.787
X108.764Y-107.327
X108.764Y-113.922
X108.764Y-116.462
X108.764Y-123.052
X108.764Y-125.592
X108.764Y-132.18
X108.764Y-134.72
X108.764Y-141.31
X108.764Y-143.85
X108.764Y-150.441
X108.764Y-152.981
X117.76Y-50.002
X117.76Y-52.542
X117.764Y-59.133
X117.764Y-61.673
X117.764Y-68.264
X117.764Y-70.804
X117.764Y-77.395
X117.764Y-79.935
X117.764Y-86.526
X117.764Y-89.066
X117.764Y-95.656
X117.764Y-98.196
X117.764Y-104.787
X117.764Y-107.327
X117.764Y-113.922
X117.764Y-116.462
X117.764Y-123.052
X117.764Y-125.592
X117.764Y-132.18
X117.764Y-134.72
X117.764Y-141.31
X117.764Y-143.85
X117.764Y-150.441
X117.764Y-152.981
X126.76Y-50.002
X126.76Y-52.542
X126.764Y-59.133
X126.764Y-61.673
X126.764Y-68.264
X126.764Y-70.804
X126.764Y-77.395
X126.764Y-79.935
X126.764Y-86.526
X126.764Y-89.066
X126.764Y-95.656
X126.764Y-98.196
X126.764Y-104.787
X126.764Y-107.327
X126.764Y-113.922
X126.764Y-116.462
X126.764Y-123.052
X126.764Y-125.592
X126.764Y-132.18
X126.764Y-134.72
X126.764Y-141.31
X126.764Y-143.85
X126.764Y-150.441
X126.764Y-152.981
X135.76Y-50.002
X135.76Y-52.542
X135.764Y-59.133
X135.764Y-61.673
X135.764Y-68.264
X135.764Y-70.804
X135.764Y-77.395
X135.764Y-79.935
X135.764Y-86.526
X135.764Y-89.066
X135.764Y-95.656
X135.764Y-98.196
X135.764Y-104.787
X135.764Y-107.327
X135.764Y-113.922
X135.764Y-116.462
X135.764Y-123.052
X135.764Y-125.592
X135.764Y-132.18
X135.764Y-134.72
X135.764Y-141.31
X135.764Y-143.85
X135.764Y-150.441
X135.764Y-152.981
X144.76Y-50.002
X144.76Y-52.542
X144.764Y-59.133
X144.764Y-61.673
X144.764Y-68.264
X144.764Y-70.804
X144.764Y-77.395
X144.764Y-79.935
X144.764Y-86.526
X144.764Y-89.066
X144.764Y-95.656
X144.764Y-98.196
X144.764Y-104.787
X144.764Y-107.327
X144.764Y-113.922
X144.764Y-116.462
X144.764Y-123.052
X144.764Y-125.592
X144.764Y-132.18
X144.764Y-134.72
X144.764Y-141.31
X144.764Y-143.85
X144.764Y-150.441
X144.764Y-152.981
X153.76Y-50.002
X153.76Y-52.542
X153.764Y-59.133
X153.764Y-61.673
X153.764Y-68.264
X153.764Y-70.804
X153.764Y-77.395
X153.764Y-79.935
X153.764Y-86.526
X153.764Y-89.066
X153.764Y-95.656
X153.764Y-98.196
X153.764Y-104.787
X153.764Y-107.327
X153.764Y-113.922
X153.764Y-116.462
X153.764Y-123.052
X153.764Y-125.592
X153.764Y-132.18
X153.764Y-134.72
X153.764Y-141.31
X153.764Y-143.85
X153.764Y-150.441
X153.764Y-152.981
X162.76Y-50.002
X162.76Y-52.542
X162.764Y-59.133
X162.764Y-61.673
X162.764Y-68.264
X162.764Y-70.804
X162.764Y-77.395
X162.764Y-79.935
X162.764Y-86.526
X162.764Y-89.066
X162.764Y-95.656
X162.764Y-98.196
X162.764Y-104.787
X162.764Y-107.327
X162.764Y-113.922
X162.764Y-116.462
X162.764Y-123.052
X162.764Y-125.592
X162.764Y-132.18
X162.764Y-134.72
X162.764Y-141.31
X162.764Y-143.85
X162.764Y-150.441
X162.764Y-152.981
X171.76Y-50.002
X171.76Y-52.542
X171.764Y-59.133
X171.764Y-61.673
X171.764Y-68.264
X171.764Y-70.804
X171.764Y-77.395
X171.764Y-79.935
X171.764Y-86.526
X171.764Y-89.066
X171.764Y-95.656
X171.764Y-98.196
X171.764Y-104.787
X171.764Y-107.327
X171.764Y-113.922
X171.764Y-116.462
X171.764Y-123.052
X171.764Y-125.592
X171.764Y-132.18
X171.764Y-134.72
X171.764Y-141.31
X171.764Y-143.85
X171.764Y-150.441
X171.764Y-152.981
X180.76Y-50.002
X180.76Y-52.542
X180.764Y-59.133
X180.764Y-61.673
X180.764Y-68.264
X180.764Y-70.804
X180.764Y-77.395
X180.764Y-79.935
X180.764Y-86.526
X180.764Y-89.066
X180.764Y-95.656
X180.764Y-98.196
X180.764Y-104.787
X180.764Y-107.327
X180.764Y-113.922
X180.764Y-116.462
X180.764Y-123.052
X180.764Y-125.592
X180.764Y-132.18
X180.764Y-134.72
X180.764Y-141.31
X180.764Y-143.85
X180.764Y-150.441
X180.764Y-152.981
X189.76Y-50.002
X189.76Y-52.542
X189.764Y-59.133
X189.764Y-61.673
X189.764Y-68.264
X189.764Y-70.804
X189.764Y-77.395
X189.764Y-79.935
X189.764Y-86.526
X189.764Y-89.066
X189.764Y-95.656
X189.764Y-98.196
X189.764Y-104.787
X189.764Y-107.327
X189.764Y-113.922
X189.764Y-116.462
X189.764Y-123.052
X189.764Y-125.592
X189.764Y-132.18
X189.764Y-134.72
X189.764Y-141.31
X189.764Y-143.85
X189.764Y-150.441
X189.764Y-152.981
X198.76Y-50.002
X198.76Y-52.542
X198.764Y-59.133
X198.764Y-61.673
X198.764Y-68.264
X198.764Y-70.804
X198.764Y-77.395
X198.764Y-79.935
X198.764Y-86.526
X198.764Y-89.066
X198.764Y-95.656
X198.764Y-98.196
X198.764Y-104.787
X198.764Y-107.327
X198.764Y-113.922
X198.764Y-116.462
X198.764Y-123.052
X198.764Y-125.592
X198.764Y-132.18
X198.764Y-134.72
X198.764Y-141.31
X198.764Y-143.85
X198.764Y-150.441
X198.764Y-152.981
X207.76Y-50.002
X207.76Y-52.542
X207.764Y-59.133
X207.764Y-61.673
X207.764Y-68.264
X207.764Y-70.804
X207.764Y-77.395
X207.764Y-79.935
X207.764Y-86.526
X207.764Y-89.066
X207.764Y-95.656
X207.764Y-98.196
X207.764Y-104.787
X207.764Y-107.327
X207.764Y-113.922
X207.764Y-116.462
X207.764Y-123.052
X207.764Y-125.592
X207.764Y-132.18
X207.764Y-134.72
X207.764Y-141.31
X207.764Y-143.85
X207.764Y-150.441
X207.764Y-152.981
X216.76Y-50.002
X216.76Y-52.542
X216.764Y-59.133
X216.764Y-61.673
X216.764Y-68.264
X216.764Y-70.804
X216.764Y-77.395
X216.764Y-79.935
X216.764Y-86.526
X216.764Y-89.066
X216.764Y-95.656
X216.764Y-98.196
X216.764Y-104.787
X216.764Y-107.327
X216.764Y-113.922
X216.764Y-116.462
X216.764Y-123.052
X216.764Y-125.592
X216.764Y-132.18
X216.764Y-134.72
X216.764Y-141.31
X216.764Y-143.85
X216.764Y-150.441
X216.764Y-152.981
X225.76Y-50.002
X225.76Y-52.542
X225.764Y-59.133
X225.764Y-61.673
X225.764Y-68.264
X225.764Y-70.804
X225.764Y-77.395
X225.764Y-79.935
X225.764Y-86.526
X225.764Y-89.066
X225.764Y-95.656
X225.764Y-98.196
X225.764Y-104.787
X225.764Y-107.327
X225.764Y-113.922
X225.764Y-116.462
X225.764Y-123.052
X225.764Y-125.592
X225.764Y-132.18
X225.764Y-134.72
X225.764Y-141.31
X225.764Y-143.85
X225.764Y-150.441
X225.764Y-152.981
X234.76Y-50.002
X234.76Y-52.542
X234.764Y-59.133
X234.764Y-61.673
X234.764Y-68.264
X234.764Y-70.804
X234.764Y-77.395
X234.764Y-79.935
X234.764Y-86.526
X234.764Y-89.066
X234.764Y-95.656
X234.764Y-98.196
X234.764Y-104.787
X234.764Y-107.327
X234.764Y-113.922
X234.764Y-116.462
X234.764Y-123.052
X234.764Y-125.592
X234.764Y-132.18
X234.764Y-134.72
X234.764Y-141.31
X234.764Y-143.85
X234.764Y-150.441
X234.764Y-152.981
X243.76Y-50.002
X243.76Y-52.542
X243.764Y-59.133
X243.764Y-61.673
X243.764Y-68.264
X243.764Y-70.804
X243.764Y-77.395
X243.764Y-79.935
X243.764Y-86.526
X243.764Y-89.066
X243.764Y-95.656
X243.764Y-98.196
X243.764Y-104.787
X243.764Y-107.327
X243.764Y-113.922
X243.764Y-116.462
X243.764Y-123.052
X243.764Y-125.592
X243.764Y-132.18
X243.764Y-134.72
X243.764Y-141.31
X243.764Y-143.85
X243.764Y-150.441
X243.764Y-152.981
X252.76Y-50.002
X252.76Y-52.542
X252.764Y-59.133
X252.764Y-61.673
X252.764Y-68.264
X252.764Y-70.804
X252.764Y-77.395
X252.764Y-79.935
X252.764Y-86.526
X252.764Y-89.066
X252.764Y-95.656
X252.764Y-98.196
X252.764Y-104.787
X252.764Y-107.327
X252.764Y-113.922
X252.764Y-116.462
X252.764Y-123.052
X252.764Y-125.592
X252.764Y-132.18
X252.764Y-134.72
X252.764Y-141.31
X252.764Y-143.85
X252.764Y-150.441
X252.764Y-152.981
X261.76Y-50.002
X261.76Y-52.542
X261.764Y-59.133
X261.764Y-61.673
X261.764Y-68.264
X261.764Y-70.804
X261.764Y-77.395
X261.764Y-79.935
X261.764Y-86.526
X261.764Y-89.066
X261.764Y-95.656
X261.764Y-98.196
X261.764Y-104.787
X261.764Y-107.327
X261.764Y-113.922
X261.764Y-116.462
X261.764Y-123.052
X261.764Y-125.592
X261.764Y-132.18
X261.764Y-134.72
X261.764Y-141.31
X261.764Y-143.85
X261.764Y-150.441
X261.764Y-152.981
X270.76Y-50.002
X270.76Y-52.542
X270.764Y-59.133
X270.764Y-61.673
X270.764Y-68.264
X270.764Y-70.804
X270.764Y-77.395
X270.764Y-79.935
X270.764Y-86.526
X270.764Y-89.066
X270.764Y-95.656
X270.764Y-98.196
X270.764Y-104.787
X270.764Y-107.327
X270.764Y-113.922
X270.764Y-116.462
X270.764Y-123.052
X270.764Y-125.592
X270.764Y-132.18
X270.764Y-134.72
X270.764Y-141.31
X270.764Y-143.85
X270.764Y-150.441
X270.764Y-152.981
X279.76Y-50.002
X279.76Y-52.542
X279.764Y-59.133
X279.764Y-61.673
X279.764Y-68.264
X279.764Y-70.804
X279.764Y-77.395
X279.764Y-79.935
X279.764Y-86.526
X279.764Y-89.066
X279.764Y-95.656
X279.764Y-98.196
X279.764Y-104.787
X279.764Y-107.327
X279.764Y-113.922
X279.764Y-116.462
X279.764Y-123.052
X279.764Y-125.592
X279.764Y-132.18
X279.764Y-134.72
X279.764Y-141.31
X279.764Y-143.85
X279.764Y-150.441
X279.764Y-152.981
X288.76Y-50.002
X288.76Y-52.542
X288.764Y-59.133
X288.764Y-61.673
X288.764Y-68.264
X288.764Y-70.804
X288.764Y-77.395
X288.764Y-79.935
X288.764Y-86.526
X288.764Y-89.066
X288.764Y-95.656
X288.764Y-98.196
X288.764Y-104.787
X288.764Y-107.327
X288.764Y-113.922
X288.764Y-116.462
X288.764Y-123.052
X288.764Y-125.592
X288.764Y-132.18
X288.764Y-134.72
X288.764Y-141.31
X288.764Y-143.85
X288.764Y-150.441
X288.764Y-152.981
X297.76Y-50.002
X297.76Y-52.542
X297.764Y-59.133
X297.764Y-61.673
X297.764Y-68.264
X297.764Y-70.804
X297.764Y-77.395
X297.764Y-79.935
X297.764Y-86.526
X297.764Y-89.066
X297.764Y-95.656
X297.764Y-98.196
X297.764Y-104.787
X297.764Y-107.327
X297.764Y-113.922
X297.764Y-116.462
X297.764Y-123.052
X297.764Y-125.592
X297.764Y-132.18
X297.764Y-134.72
X297.764Y-141.31
X297.764Y-143.85
X297.764Y-150.441
X297.764Y-152.981
T3
X35.408Y-70.18
X35.408Y-72.72
X35.408Y-75.26
X35.408Y-77.8
X35.408Y-80.34
X35.408Y-82.88
X35.408Y-85.42
X35.408Y-87.96
X35.408Y-90.5
X35.408Y-93.04
X35.408Y-95.58
X35.408Y-98.12
X35.408Y-100.66
X35.408Y-103.2
X35.408Y-105.74
X35.408Y-108.28
X35.408Y-110.82
X35.408Y-113.36
X35.408Y-115.9
X35.408Y-118.44
X37.948Y-70.18
X37.948Y-72.72
X37.948Y-75.26
X37.948Y-77.8
X37.948Y-80.34
X37.948Y-82.88
X37.948Y-85.42
X37.948Y-87.96
X37.948Y-90.5
X37.948Y-93.04
X37.948Y-95.58
X37.948Y-98.12
X37.948Y-100.66
X37.948Y-103.2
X37.948Y-105.74
X37.948Y-108.28
X37.948Y-110.82
X37.948Y-113.36
X37.948Y-115.9
X37.948Y-118.44
T4
X26.397Y-34.156
X26.397Y-157.156
X303.397Y-34.156
X303.397Y-157.156
M30
